<svg width="28" height="29" viewBox="0 0 28 29" fill="none" xmlns="http://www.w3.org/2000/svg">
<g id="catalog-add-cart-icon.svg">
<g id="Clip path group">
<mask id="mask0_1_275" style="mask-type:luminance" maskUnits="userSpaceOnUse" x="0" y="1" width="28" height="28">
<g id="clip0">
<path id="Vector" d="M27.6211 1.5332H0.621094V28.5332H27.6211V1.5332Z" fill="white"/>
</g>
</mask>
<g mask="url(#mask0_1_275)">
<g id="Group">
<path id="Vector_2" d="M26.803 8.39256C26.4739 8.25153 26.1024 8.24697 25.77 8.37988C25.4375 8.5128 25.1715 8.7723 25.0304 9.10131L21.3314 17.7332H9.96309L8.72109 2.77116C8.69292 2.43288 8.53834 2.11763 8.28816 1.88821C8.03797 1.65879 7.71054 1.53204 7.37109 1.53321H1.97109C1.61305 1.53321 1.26967 1.67544 1.0165 1.92862C0.763325 2.18179 0.621094 2.52517 0.621094 2.88321C0.621094 3.24125 0.763325 3.58463 1.0165 3.83781C1.26967 4.09098 1.61305 4.23321 1.97109 4.23321H6.12909L7.37109 19.1953C7.39927 19.5336 7.55384 19.8488 7.80403 20.0782C8.05421 20.3077 8.38164 20.4344 8.72109 20.4332H22.2211C22.4852 20.4332 22.7436 20.3557 22.9641 20.2103C23.1846 20.0648 23.3577 19.8579 23.4617 19.6151L27.5117 10.1651C27.6528 9.83607 27.6573 9.46448 27.5244 9.13207C27.3915 8.79966 27.132 8.53366 26.803 8.39256Z" fill="white"/>
<path id="Vector_3" d="M9.39609 27.1828C10.5145 27.1828 11.4211 26.2762 11.4211 25.1578C11.4211 24.0395 10.5145 23.1328 9.39609 23.1328C8.27772 23.1328 7.37109 24.0395 7.37109 25.1578C7.37109 26.2762 8.27772 27.1828 9.39609 27.1828Z" fill="white"/>
<path id="Vector_4" d="M21.5465 27.1828C22.6649 27.1828 23.5715 26.2762 23.5715 25.1578C23.5715 24.0395 22.6649 23.1328 21.5465 23.1328C20.4281 23.1328 19.5215 24.0395 19.5215 25.1578C19.5215 26.2762 20.4281 27.1828 21.5465 27.1828Z" fill="white"/>
</g>
</g>
</g>
</g>
</svg>
