<svg width="22" height="22" viewBox="0 0 22 22" fill="
#C90000" xmlns="http://www.w3.org/2000/svg">
<g id="svg" clip-path="url(#clip0_1_259)">
<path id="Vector" d="M18.5582 4.04838L18.5621 4.05245L18.566 4.05646C19.6032 5.11174 20.254 6.51964 20.254 7.99045C20.254 9.48489 19.6879 10.8525 18.6343 11.9245L10.5894 20.11L2.54452 11.9245L2.54057 11.9204L2.53656 11.9165C1.49518 10.8871 0.924805 9.49142 0.924805 7.99045C0.924805 6.49605 1.49094 5.12848 2.54452 4.05646L2.54847 4.05245L2.55236 4.04838C3.56363 2.98916 4.92911 2.41406 6.39198 2.41406C7.72475 2.41406 9.0097 2.92586 10.0357 3.84699L10.5631 4.32049L11.0834 3.8392C12.068 2.92846 13.3476 2.41406 14.7186 2.41406C16.1814 2.41406 17.547 2.98916 18.5582 4.04838Z" stroke="#C90000" stroke-width="1.55556"/>
</g>
<defs>
<clipPath id="clip0_1_259">
<rect width="21" height="21" fill="white" transform="translate(0.125 0.5)"/>
</clipPath>
</defs>
</svg>
