<svg width="221" height="50" viewBox="0 0 221 50" fill="none" xmlns="http://www.w3.org/2000/svg">
<g id="Group">
<g id="logotype">
<path id="logotype-b-47" fill-rule="evenodd" clip-rule="evenodd" d="M94.5242 23.8347C95.8596 23.318 97.0054 22.4057 97.8081 21.2199C98.6108 20.0341 99.0321 18.6315 99.0157 17.1996C99.0157 11.228 94.7794 8.26776 88.9609 8.26776H73.7002V40.7389H90.288C95.3919 40.7389 100.394 37.1662 100.394 31.705C100.394 25.2128 94.5242 23.896 94.5242 23.8347ZM81.6623 15.0049H87.5829C87.962 14.9814 88.342 15.0329 88.7012 15.1565C89.0604 15.28 89.3917 15.4732 89.6761 15.7249C89.9606 15.9767 90.1926 16.282 90.3589 16.6235C90.5252 16.965 90.6225 17.336 90.6452 17.7151C90.6452 17.8308 90.6452 17.9482 90.6452 18.0673C90.6291 18.8656 90.2983 19.6251 89.7247 20.1806C89.1511 20.736 88.3813 21.0423 87.5829 21.0327H81.6113L81.6623 15.0049ZM87.6339 33.9405H81.7134V27.5606H87.4808C90.39 27.5606 91.7681 28.8366 91.7681 30.725C91.7681 33.0831 90.0328 33.9405 87.6339 33.9405Z" fill="white"/>
<path id="logotype-o-47" fill-rule="evenodd" clip-rule="evenodd" d="M117.951 7.45135C108.56 7.45135 103.048 14.9541 103.048 24.4474C103.048 33.9407 108.56 41.4435 117.951 41.4435C127.343 41.4435 132.855 33.9918 132.855 24.4474C132.855 14.9031 127.394 7.45135 117.951 7.45135ZM117.951 33.6855C113.358 33.6855 111.061 29.5514 111.061 24.4474C111.061 19.3435 113.358 15.2604 117.951 15.2604C122.545 15.2604 124.893 19.3945 124.893 24.4474C124.893 29.6024 122.545 33.6855 117.951 33.6855Z" fill="white"/>
<path id="logotype-s-47" fill-rule="evenodd" clip-rule="evenodd" d="M150.157 21.0281L149.035 20.7729C146.278 20.2114 144.084 19.4969 144.084 17.5063C144.084 15.3627 146.176 14.495 148.014 14.495C149.267 14.5137 150.504 14.7908 151.645 15.3089C152.787 15.827 153.809 16.5751 154.649 17.5063L159.702 12.5045C157.405 9.9015 153.679 7.40057 147.861 7.40057C141.021 7.40057 135.815 11.2285 135.815 17.6084C135.815 23.4269 140.001 26.2851 145.104 27.3569L146.227 27.6121C150.464 28.4798 152.046 29.1433 152.046 31.1849C152.046 33.1244 150.311 34.4003 147.656 34.4003C144.492 34.4003 141.634 33.0223 139.439 30.2151L134.284 35.3191C137.142 38.7387 140.766 41.3927 147.759 41.3927C153.832 41.3927 160.314 37.9221 160.314 30.8276C160.416 23.4269 154.802 21.9978 150.157 21.0281Z" fill="white"/>
<path id="logotype-c-47" fill-rule="evenodd" clip-rule="evenodd" d="M178.483 33.6863C174.91 33.6863 171.185 30.726 171.185 24.244C171.185 18.4766 174.655 15.2611 178.279 15.2611C181.137 15.2611 182.822 16.5881 184.149 18.8849L190.682 14.5465C187.415 9.59572 183.536 7.50311 178.177 7.50311C168.377 7.50311 163.069 15.108 163.069 24.295C163.069 33.9415 168.939 41.4953 178.075 41.4953C184.506 41.4953 187.568 39.2495 190.886 34.4518L184.302 30.0216C182.975 32.1551 181.546 33.6863 178.483 33.6863Z" fill="white"/>
<path id="logotype-h-47" fill-rule="evenodd" clip-rule="evenodd" d="M212.476 8.26776V20.211H202.625V8.26776H194.102V40.7287H202.625V27.9179H212.476V40.7287H220.999V8.26776H212.476Z" fill="white"/>
</g>
<g id="symbol">
<path id="Vector" d="M24.6009 0.000183105C19.7353 0.000183105 14.979 1.443 10.9334 4.14619C6.88779 6.84937 3.73463 10.6915 1.87265 15.1867C0.0106592 19.682 -0.476521 24.6284 0.472711 29.4005C1.42194 34.1726 3.76496 38.5561 7.20546 41.9966C10.646 45.4371 15.0294 47.7801 19.8015 48.7293C24.5737 49.6786 29.5201 49.1914 34.0153 47.3294C38.5105 45.4674 42.3527 42.3143 45.0559 38.2687C47.759 34.2231 49.2019 29.4667 49.2019 24.6011C49.2019 18.0765 46.61 11.8192 41.9964 7.20563C37.3829 2.59206 31.1255 0.000183105 24.6009 0.000183105ZM24.6009 46.9053C20.1896 46.9053 15.8773 45.5972 12.2094 43.1463C8.54151 40.6955 5.68273 37.2121 3.99458 33.1365C2.30643 29.061 1.86474 24.5764 2.72535 20.2498C3.58596 15.9232 5.71022 11.949 8.82952 8.82969C11.9488 5.71039 15.923 3.58613 20.2496 2.72552C24.5762 1.86491 29.0608 2.3066 33.1364 3.99475C37.2119 5.6829 40.6954 8.54168 43.1462 12.2096C45.597 15.8775 46.9051 20.1898 46.9051 24.6011C46.9038 30.5161 44.5534 36.1885 40.3709 40.371C36.1883 44.5536 30.516 46.9039 24.6009 46.9053Z" fill="white"/>
<path id="Vector_2" d="M34.7582 9.23846H33.0739V17.6599H16.1799V9.23846H14.4445C11.9028 10.9153 9.81685 13.1965 8.37358 15.8777C6.9303 18.5589 6.1748 21.5563 6.1748 24.6013C6.1748 27.6463 6.9303 30.6437 8.37358 33.3249C9.81685 36.0061 11.9028 38.2873 14.4445 39.9641H16.1799V31.5528H33.0739V39.9743H34.7582C37.301 38.2983 39.388 36.0174 40.8321 33.3361C42.2761 30.6548 43.0321 27.6569 43.0321 24.6115C43.0321 21.566 42.2761 18.5682 40.8321 15.8869C39.388 13.2056 37.301 10.9247 34.7582 9.24867V9.23846ZM13.8321 36.6568C12.2491 35.2503 10.9588 33.5458 10.0346 31.6406C9.1105 29.7354 8.57069 27.6669 8.44604 25.553C8.3214 23.4392 8.61434 21.3215 9.30816 19.3209C10.002 17.3203 11.0831 15.476 12.4897 13.8932C12.9113 13.4223 13.3595 12.9758 13.8321 12.556V36.6568ZM33.0739 29.205H16.1799V19.9567H33.0739V29.205ZM35.3706 36.6057V31.5018V17.6599V12.556C36.9497 13.9739 38.2338 15.6891 39.1498 17.6034C40.0657 19.5178 40.5955 21.5939 40.7087 23.7131C40.822 25.8323 40.5166 27.953 39.81 29.9541C39.1034 31.9553 38.0093 33.7975 36.5905 35.3757C36.2045 35.8024 35.7974 36.2096 35.3706 36.5955V36.6057Z" fill="white"/>
</g>
</g>
</svg>
