<svg width="105" height="62" viewBox="0 0 105 62" fill="none" xmlns="http://www.w3.org/2000/svg">
<g id="Group">
<path id="Vector" d="M29.0037 10.1722C29.0037 15.788 24.4539 20.342 18.838 20.342C13.2091 20.342 8.66406 15.788 8.66406 10.1722C8.66406 4.55872 13.2091 0 18.838 0C24.4539 0 29.0037 4.55872 29.0037 10.1722Z" fill="white"/>
<path id="Vector_2" d="M104.257 21.5664L102.683 29.4295H18.4194L10.5563 61.4344H3.10293L10.9696 29.4295H0.390625L1.96385 21.5664H104.257Z" fill="white"/>
<path id="Vector_3" d="M44.4264 46.2216C43.706 39.4197 37.9411 34.1133 30.9605 34.1133C23.4899 34.1133 17.418 40.1953 17.418 47.6665C17.418 55.1377 23.4899 61.2138 30.9605 61.2138L40.1795 61.1859L41.6037 54.3145H30.8584L44.4264 46.2216ZM24.4924 47.6665C24.4924 44.0972 27.3918 41.196 30.9605 41.196C32.8028 41.196 34.4573 41.98 35.6344 43.2236L24.8292 49.6554C24.6326 49.0247 24.4924 48.3661 24.4924 47.6665Z" fill="white"/>
<path id="Vector_4" d="M73.6697 34.4854H63.9519L55.1931 43.762L57.1031 34.4854H49.8754L44.332 61.4255H51.5645L53.8753 50.1879L63.4191 61.4255H72.7142L61.1285 47.7927L73.6697 34.4854Z" fill="white"/>
<path id="Vector_5" d="M94.0219 34.4839L93.3479 37.3596C90.9385 35.2536 87.7962 33.9785 84.3641 33.9785C76.8115 33.9785 70.6719 40.1182 70.6719 47.666C70.6719 55.2114 76.8115 61.3582 84.3641 61.3582V61.3457H95.0369L101.292 34.4845L94.0219 34.4839ZM89.4127 54.2653H84.3552V54.276C80.7188 54.2653 77.7505 51.3053 77.7505 47.6666C77.7505 44.0165 80.7188 41.0571 84.3647 41.0571C87.985 41.0571 90.9278 43.9904 90.9646 47.6024L89.4127 54.2653Z" fill="white"/>
</g>
</svg>
