<svg width="167" height="53" viewBox="0 0 167 53" fill="none" xmlns="http://www.w3.org/2000/svg">
<g id="logo franke">
<path id="Vector" fill-rule="evenodd" clip-rule="evenodd" d="M0.921875 0H54.9352V52.0136H0.921875V0ZM56.9367 0H110.949V52.0136H56.9367V0ZM112.378 0H166.392V52.0136H112.378V0Z" fill="white"/>
<path id="Vector_2" fill-rule="evenodd" clip-rule="evenodd" d="M3.66406 37.4376V32.8809H5.50283V19.2604H3.66406V14.7196H26.1096V21.7864H20.3174V19.2595H15.0558V23.8817H19.0455V28.341H15.0558V32.8809H17.4066V37.4376H3.66406ZM37.8392 32.88H40.328V37.4367H27.1046V32.88H29.0089V19.2595H27.1046V14.7188H40.703C45.1509 14.7188 48.3279 15.2317 50.2383 16.2524C52.1425 17.2783 53.0951 18.9641 53.0951 21.3221C53.0951 22.5444 52.7997 23.6031 52.2027 24.4875C51.6127 25.372 50.7088 26.1087 49.4971 26.6924L53.2215 32.88H54.6499V37.4367H45.6445L40.7022 28.0669H37.8392V32.88ZM37.8392 19.2595V24.0727H38.5989C40.0937 24.0727 41.1904 23.8763 41.89 23.489C42.5896 23.1016 42.9389 22.4904 42.9389 21.6608C42.9389 20.848 42.5834 20.2421 41.8785 19.8326C41.1736 19.4285 40.106 19.2268 38.6724 19.2268C38.5883 19.2268 38.4557 19.2321 38.2744 19.2436C38.1295 19.2528 37.9844 19.2581 37.8392 19.2595ZM66.8492 26.8569H71.1255L69.1611 20.3783L66.8492 26.8569ZM64.7433 32.88H66.345V37.4367H57.7084V32.88H59.0253L63.8597 19.2268H62.0148V14.7188H78.9794V19.2268H77.1044L81.8972 32.88H83.2557V37.4367H71.0901V32.88H72.8988L71.9082 29.5085H65.894L64.7433 32.88ZM90.7603 23.32V32.8809H92.9661V37.4376H83.6475V32.8809H85.4571V19.2604H83.6475V14.7196H94.5855L102.647 27.9422V19.2277H100.493V14.7196H109.805V19.2277H107.996V37.4376H99.4836L90.7603 23.32ZM141.4 32.88H141.939V37.4367H129.007V32.88H130.698L124.785 25.7204L131.112 19.2268H128.729V14.7188H139.732V19.2268H138.273L133.718 23.9091L141.4 32.88ZM113.107 37.4376V32.8809H114.915V19.2604H113.107V14.7196H126.127V19.2604H124.316V32.8809H126.127V37.4376H113.107ZM142.111 37.4376V32.8809H143.921V19.2604H142.111V14.7196H164.201V21.7864H158.5V19.2595H153.322V23.8817H157.753V28.341H153.322V32.8809H158.5V30.0065H164.201V37.4376H142.111Z" fill="#CC2229"/>
</g>
</svg>
